<?xml version="1.0" encoding="UTF-8"?>
<svg version="1.1" xmlns="http://www.w3.org/2000/svg" width="100" height="100">
<path d="M0 0 C1.10658966 0.00607269 1.10658966 0.00607269 2.23553467 0.01226807 C3.01289978 0.00876343 3.79026489 0.00525879 4.59118652 0.00164795 C7.16803849 -0.00717493 9.74461727 -0.00131833 12.32147217 0.00543213 C14.10744276 0.00408564 15.89341299 0.00214524 17.67938232 -0.00036621 C21.42534876 -0.00331823 25.17121992 0.00098264 28.91717529 0.01031494 C33.7261005 0.02170953 38.53480248 0.01515047 43.34371948 0.00317001 C47.03250825 -0.00404651 50.72124383 -0.00176162 54.41003418 0.0034256 C56.18351264 0.00476267 57.95699587 0.00311237 59.73046875 -0.00153351 C62.20624642 -0.00659536 64.68165927 0.0011065 67.15740967 0.01226807 C67.89513611 0.0082196 68.63286255 0.00417114 69.39294434 0 C74.46794339 0.04252835 74.46794339 0.04252835 76.69647217 2.27105713 C76.95043945 4.472229 76.95043945 4.472229 76.95526123 7.23980713 C76.96156555 8.27427979 76.96786987 9.30875244 76.97436523 10.37457275 C76.97031677 11.4954126 76.96626831 12.61625244 76.96209717 13.77105713 C76.96401062 14.91767822 76.96592407 16.06429932 76.96789551 17.2456665 C76.96925838 19.67340311 76.96555484 22.10114697 76.95721436 24.52886963 C76.94651654 28.25559786 76.95710648 31.98184399 76.96990967 35.70855713 C76.96858809 38.06272486 76.96602574 40.4168923 76.96209717 42.77105713 C76.96614563 43.89189697 76.97019409 45.01273682 76.97436523 46.1675415 C76.96490875 47.71925049 76.96490875 47.71925049 76.95526123 49.30230713 C76.95367004 50.21560791 76.95207886 51.12890869 76.95043945 52.06988525 C76.69647217 54.27105713 76.69647217 54.27105713 74.69647217 56.27105713 C71.82758635 56.44638002 69.05654571 56.50243327 66.18865967 56.46636963 C65.34803986 56.46353973 64.50742004 56.46070984 63.6413269 56.45779419 C60.95123171 56.44658143 58.26146707 56.42147516 55.57147217 56.39605713 C53.74986239 56.38602873 51.9282474 56.37690264 50.10662842 56.36871338 C45.63644859 56.34663855 41.16651646 56.31210147 36.69647217 56.27105713 C36.69647217 59.57105713 36.69647217 62.87105713 36.69647217 66.27105713 C37.60397217 66.16793213 38.51147217 66.06480713 39.44647217 65.95855713 C45.13809539 65.95855713 50.9505433 68.23935178 55.69647217 71.27105713 C56.54803467 73.94683838 56.54803467 73.94683838 56.69647217 76.27105713 C53.05407034 76.74104446 51.00015303 75.96645055 47.88397217 74.27105713 C40.79653773 70.94696727 31.28382507 70.81515306 23.84100342 73.17730713 C22.36376968 73.87014707 20.90315718 74.60065762 19.46990967 75.38043213 C17.15883629 76.54105929 15.23957205 76.59919905 12.69647217 76.27105713 C12.69647217 74.95105713 12.69647217 73.63105713 12.69647217 72.27105713 C19.13167744 68.6302625 24.28430536 66.62971036 31.69647217 66.27105713 C31.69647217 62.97105713 31.69647217 59.67105713 31.69647217 56.27105713 C30.03092285 56.28676758 30.03092285 56.28676758 28.33172607 56.30279541 C24.22059338 56.33893662 20.10947478 56.36193609 15.99822998 56.38092041 C14.2172815 56.39099144 12.4363496 56.40464898 10.65545654 56.42193604 C8.09877434 56.44613626 5.54231032 56.45752897 2.98553467 56.46636963 C2.1865274 56.4766922 1.38752014 56.48701477 0.56430054 56.49765015 C-1.39310003 56.49804939 -3.3499586 56.39346781 -5.30352783 56.27105713 C-7.84626505 53.72831991 -7.55617663 52.82666274 -7.56231689 49.30230713 C-7.56862122 48.26783447 -7.57492554 47.23336182 -7.5814209 46.1675415 C-7.57737244 45.04670166 -7.57332397 43.92586182 -7.56915283 42.77105713 C-7.57106628 41.62443604 -7.57297974 40.47781494 -7.57495117 39.29644775 C-7.57631405 36.86871115 -7.5726105 34.44096729 -7.56427002 32.01324463 C-7.55357221 28.2865164 -7.56416214 24.56027027 -7.57696533 20.83355713 C-7.57564376 18.47938939 -7.5730814 16.12522196 -7.56915283 13.77105713 C-7.57320129 12.65021729 -7.57724976 11.52937744 -7.5814209 10.37457275 C-7.57511658 9.3401001 -7.56881226 8.30562744 -7.56231689 7.23980713 C-7.56072571 6.32650635 -7.55913452 5.41320557 -7.55749512 4.472229 C-7.01339167 -0.24359577 -4.05415895 0.03397374 0 0 Z M-3.30352783 6.27105713 C-3.60850717 8.23549905 -3.60850717 8.23549905 -3.56231689 10.50543213 C-3.56862122 11.37973877 -3.57492554 12.25404541 -3.5814209 13.15484619 C-3.57737244 14.1006958 -3.57332397 15.04654541 -3.56915283 16.02105713 C-3.57106628 16.99010986 -3.57297974 17.9591626 -3.57495117 18.95758057 C-3.57631362 21.00868997 -3.57261301 23.05980799 -3.56427002 25.11090088 C-3.55357143 28.25823252 -3.56416337 31.40499333 -3.57696533 34.55230713 C-3.57564375 36.54189173 -3.57308138 38.53147597 -3.56915283 40.52105713 C-3.57320129 41.46690674 -3.57724976 42.41275635 -3.5814209 43.38726807 C-3.57511658 44.26157471 -3.56881226 45.13588135 -3.56231689 46.03668213 C-3.55993011 47.19345459 -3.55993011 47.19345459 -3.55749512 48.37359619 C-3.46660203 50.51268296 -3.46660203 50.51268296 -1.30352783 52.27105713 C1.80006354 52.57916628 1.80006354 52.57916628 5.50115967 52.52984619 C6.20049622 52.53335083 6.89983276 52.53685547 7.62036133 52.54046631 C9.93749855 52.54928588 12.25433171 52.54343382 14.57147217 52.53668213 C16.17808084 52.53802872 17.78468911 52.5399692 19.39129639 52.54248047 C22.76063919 52.54543203 26.12987604 52.5411331 29.49920654 52.53179932 C33.82386711 52.52040471 38.14827945 52.52696402 42.47293091 52.53894424 C45.79113647 52.54616201 49.10928292 52.54387532 52.42749023 52.53868866 C54.02233916 52.53735193 55.61719341 52.53900071 57.21203613 52.54364777 C59.43876415 52.54871169 61.66508693 52.54100501 63.89178467 52.52984619 C65.1603833 52.528255 66.42898193 52.52666382 67.73602295 52.52502441 C70.81597784 52.58093861 70.81597784 52.58093861 72.69647217 50.27105713 C73.00145151 48.30661521 73.00145151 48.30661521 72.95526123 46.03668213 C72.96471771 44.72522217 72.96471771 44.72522217 72.97436523 43.38726807 C72.97031677 42.44141846 72.96626831 41.49556885 72.96209717 40.52105713 C72.96401062 39.55200439 72.96592407 38.58295166 72.96789551 37.58453369 C72.96925796 35.53342428 72.96555735 33.48230627 72.95721436 31.43121338 C72.94651576 28.28388174 72.9571077 25.13712093 72.96990967 21.98980713 C72.96858808 20.00022253 72.96602571 18.01063829 72.96209717 16.02105713 C72.96614563 15.07520752 72.97019409 14.12935791 72.97436523 13.15484619 C72.96806091 12.28053955 72.96175659 11.40623291 72.95526123 10.50543213 C72.95367004 9.73425049 72.95207886 8.96306885 72.95043945 8.16851807 C72.85954636 6.0294313 72.85954636 6.0294313 70.69647217 4.27105713 C67.5928808 3.96294798 67.5928808 3.96294798 63.89178467 4.01226807 C63.19244812 4.00876343 62.49311157 4.00525879 61.77258301 4.00164795 C59.45544579 3.99282837 57.13861262 3.99868043 54.82147217 4.00543213 C53.2148635 4.00408554 51.60825522 4.00214506 50.00164795 3.99963379 C46.63230515 3.99668223 43.26306829 4.00098116 39.89373779 4.01031494 C35.56907723 4.02170955 31.24466488 4.01515024 26.92001343 4.00317001 C23.60180787 3.99595225 20.28366142 3.99823894 16.9654541 4.0034256 C15.37060517 4.00476233 13.77575092 4.00311355 12.1809082 3.99846649 C9.95418018 3.99340257 7.72785741 4.00110925 5.50115967 4.01226807 C4.23256104 4.01385925 2.9639624 4.01545044 1.65692139 4.01708984 C-1.4230335 3.96117565 -1.4230335 3.96117565 -3.30352783 6.27105713 Z " fill="#EB462E" transform="translate(15.30352783203125,11.72894287109375)"/>
<path d="M0 0 C1.47057839 0.00031709 2.94118001 0.01164091 4.41162109 0.03173828 C5.18565277 0.03456818 5.95968445 0.03739807 6.75717163 0.04031372 C9.23329016 0.05152325 11.70904909 0.07662875 14.18505859 0.10205078 C15.86213671 0.1120796 17.53922049 0.12120562 19.21630859 0.12939453 C23.33103082 0.15146504 27.44548371 0.18599977 31.56005859 0.22705078 C31.23005859 1.54705078 30.90005859 2.86705078 30.56005859 4.22705078 C29.65650635 4.25210693 28.7529541 4.27716309 27.82202148 4.30297852 C24.48041579 4.39792395 21.13899607 4.49716699 17.79760742 4.59936523 C16.3494162 4.64276708 14.90117205 4.68443822 13.45288086 4.72436523 C11.375163 4.7819414 9.29771286 4.84567106 7.22021484 4.91064453 C5.96861572 4.94730225 4.7170166 4.98395996 3.42749023 5.02172852 C0.66375355 4.90508984 0.66375355 4.90508984 -0.43994141 6.22705078 C-0.53789452 7.6031496 -0.56792229 8.9841896 -0.56933594 10.36376953 C-0.5724881 11.24137939 -0.57564026 12.11898926 -0.57888794 13.02319336 C-0.57686371 13.97734131 -0.57483948 14.93148926 -0.57275391 15.91455078 C-0.574189 17.37380981 -0.574189 17.37380981 -0.57565308 18.86254883 C-0.57633499 20.92382878 -0.57447993 22.98511087 -0.5703125 25.04638672 C-0.56496441 28.21342766 -0.57025713 31.38032678 -0.57666016 34.54736328 C-0.57599938 36.54475943 -0.57471822 38.54215549 -0.57275391 40.53955078 C-0.57477814 41.49369873 -0.57680237 42.44784668 -0.57888794 43.4309082 C-0.57573578 44.30851807 -0.57258362 45.18612793 -0.56933594 46.09033203 C-0.56854034 46.86675049 -0.56774475 47.64316895 -0.56692505 48.44311523 C-0.63397682 50.2513874 -0.63397682 50.2513874 0.56005859 51.22705078 C2.84994641 51.3859317 5.144493 51.47843151 7.43896484 51.54345703 C8.12562729 51.56423813 8.81228973 51.58501923 9.51976013 51.60643005 C11.72058794 51.67199222 13.92153834 51.73084093 16.12255859 51.78955078 C17.61150374 51.83272971 19.10043633 51.87634378 20.58935547 51.92041016 C24.24612413 52.02768008 27.90303177 52.1289285 31.56005859 52.22705078 C31.23005859 53.54705078 30.90005859 54.86705078 30.56005859 56.22705078 C25.75457262 56.27641961 20.94923366 56.31275521 16.14355469 56.33691406 C14.50811187 56.34698332 12.8726871 56.36063959 11.23730469 56.37792969 C8.8891149 56.40213783 6.54116272 56.41352436 4.19287109 56.42236328 C3.09279221 56.43784714 3.09279221 56.43784714 1.9704895 56.4536438 C0.16543162 56.45404447 -1.6390197 56.34917833 -3.43994141 56.22705078 C-5.98267862 53.68431357 -5.69259021 52.78265639 -5.69873047 49.25830078 C-5.70503479 48.22382812 -5.71133911 47.18935547 -5.71783447 46.12353516 C-5.71378601 45.00269531 -5.70973755 43.88185547 -5.70556641 42.72705078 C-5.70747986 41.58042969 -5.70939331 40.43380859 -5.71136475 39.25244141 C-5.71272762 36.8247048 -5.70902408 34.39696094 -5.70068359 31.96923828 C-5.68998578 28.24251005 -5.70057572 24.51626393 -5.71337891 20.78955078 C-5.71205733 18.43538305 -5.70949498 16.08121561 -5.70556641 13.72705078 C-5.70961487 12.60621094 -5.71366333 11.48537109 -5.71783447 10.33056641 C-5.71153015 9.29609375 -5.70522583 8.26162109 -5.69873047 7.19580078 C-5.69713928 6.2825 -5.6955481 5.36919922 -5.69390869 4.42822266 C-5.24005111 0.49457213 -3.76866732 0.24874809 0 0 Z " fill="#541488" transform="translate(13.43994140625,11.77294921875)"/>
<path d="M0 0 C-0.92599011 3.19598873 -1.39151298 4.65576441 -4.34765625 6.328125 C-5.24355469 6.63234375 -6.13945313 6.9365625 -7.0625 7.25 C-10.29257399 8.18976119 -10.29257399 8.18976119 -13 10 C-14.66617115 10.04063832 -16.33388095 10.042721 -18 10 C-18 8.68 -18 7.36 -18 6 C-16.3970947 5.18501438 -14.79262722 4.37310073 -13.1875 3.5625 C-12.29417969 3.11003906 -11.40085937 2.65757813 -10.48046875 2.19140625 C-6.79003747 0.41883689 -4.05614073 -0.10962543 0 0 Z " fill="#9E176F" transform="translate(46,78)"/>
<path d="M0 0 C5.28 0 10.56 0 16 0 C15.67 1.32 15.34 2.64 15 4 C10.05 4 5.1 4 0 4 C0 2.68 0 1.36 0 0 Z " fill="#A11871" transform="translate(29,64)"/>
<path d="M0 0 C5.28 0 10.56 0 16 0 C15.67 1.32 15.34 2.64 15 4 C10.05 4 5.1 4 0 4 C0 2.68 0 1.36 0 0 Z " fill="#A11871" transform="translate(29,12)"/>
</svg>
